<?xml version="1.0" encoding="UTF-8" standalone="no"?>
<!DOCTYPE svg PUBLIC "-//W3C//DTD SVG 1.1//EN"
 "http://www.w3.org/Graphics/SVG/1.1/DTD/svg11.dtd">
<!-- Generated by graphviz version 2.36.0 (20140111.2315)
 -->
<!-- Title: controllers_diagram Pages: 1 -->
<svg width="824pt" height="885pt"
 viewBox="0.00 0.00 824.00 885.00" xmlns="http://www.w3.org/2000/svg" xmlns:xlink="http://www.w3.org/1999/xlink">
<g id="graph0" class="graph" transform="scale(1 1) rotate(0) translate(4 881)">
<title>controllers_diagram</title>
<polygon fill="white" stroke="none" points="-4,4 -4,-881 820,-881 820,4 -4,4"/>
<!-- _diagram_info -->
<g id="node1" class="node"><title>_diagram_info</title>
<text text-anchor="start" x="428" y="-210.6" font-family="Times,serif" font-size="13.00">Controllers diagram</text>
<text text-anchor="start" x="428" y="-196.6" font-family="Times,serif" font-size="13.00">Date: Apr 25 2015 &#45; 13:47</text>
<text text-anchor="start" x="428" y="-182.6" font-family="Times,serif" font-size="13.00">Migration version: 20150326044733</text>
<text text-anchor="start" x="428" y="-168.6" font-family="Times,serif" font-size="13.00">Generated by RailRoady 1.2.0</text>
<text text-anchor="start" x="428" y="-154.6" font-family="Times,serif" font-size="13.00">http://railroady.prestonlee.com</text>
</g>
<!-- CoursesController -->
<g id="node2" class="node"><title>CoursesController</title>
<path fill="none" stroke="black" d="M243,-168.5C243,-168.5 373,-168.5 373,-168.5 379,-168.5 385,-174.5 385,-180.5 385,-180.5 385,-549.5 385,-549.5 385,-555.5 379,-561.5 373,-561.5 373,-561.5 243,-561.5 243,-561.5 237,-561.5 231,-555.5 231,-549.5 231,-549.5 231,-180.5 231,-180.5 231,-174.5 237,-168.5 243,-168.5"/>
<text text-anchor="middle" x="308" y="-546.3" font-family="Times,serif" font-size="14.00">CoursesController</text>
<polyline fill="none" stroke="black" points="231,-538.5 385,-538.5 "/>
<text text-anchor="start" x="239" y="-523.3" font-family="Times,serif" font-size="14.00">create</text>
<text text-anchor="start" x="239" y="-508.3" font-family="Times,serif" font-size="14.00">destroy</text>
<text text-anchor="start" x="239" y="-493.3" font-family="Times,serif" font-size="14.00">download_grades</text>
<text text-anchor="start" x="239" y="-478.3" font-family="Times,serif" font-size="14.00">edit</text>
<text text-anchor="start" x="239" y="-463.3" font-family="Times,serif" font-size="14.00">edit_user</text>
<text text-anchor="start" x="239" y="-448.3" font-family="Times,serif" font-size="14.00">index</text>
<text text-anchor="start" x="239" y="-433.3" font-family="Times,serif" font-size="14.00">join</text>
<text text-anchor="start" x="239" y="-418.3" font-family="Times,serif" font-size="14.00">kick_user</text>
<text text-anchor="start" x="239" y="-403.3" font-family="Times,serif" font-size="14.00">new</text>
<text text-anchor="start" x="239" y="-388.3" font-family="Times,serif" font-size="14.00">show</text>
<text text-anchor="start" x="239" y="-373.3" font-family="Times,serif" font-size="14.00">update</text>
<text text-anchor="start" x="239" y="-358.3" font-family="Times,serif" font-size="14.00">update_user</text>
<text text-anchor="start" x="239" y="-343.3" font-family="Times,serif" font-size="14.00">users</text>
<text text-anchor="start" x="239" y="-328.3" font-family="Times,serif" font-size="14.00">view_grades</text>
<polyline fill="none" stroke="black" points="231,-320.5 385,-320.5 "/>
<polyline fill="none" stroke="black" points="231,-296.5 385,-296.5 "/>
<text text-anchor="start" x="239" y="-281.3" font-family="Times,serif" font-size="14.00">_layout</text>
<text text-anchor="start" x="239" y="-266.3" font-family="Times,serif" font-size="14.00">course_params</text>
<text text-anchor="start" x="239" y="-251.3" font-family="Times,serif" font-size="14.00">require_admin</text>
<text text-anchor="start" x="239" y="-236.3" font-family="Times,serif" font-size="14.00">require_enrolled</text>
<text text-anchor="start" x="239" y="-221.3" font-family="Times,serif" font-size="14.00">require_instructor</text>
<text text-anchor="start" x="239" y="-206.3" font-family="Times,serif" font-size="14.00">require_instructor_owner</text>
<text text-anchor="start" x="239" y="-191.3" font-family="Times,serif" font-size="14.00">require_student</text>
<text text-anchor="start" x="239" y="-176.3" font-family="Times,serif" font-size="14.00">require_student_enrolled</text>
</g>
<!-- SubmissionsController -->
<g id="node3" class="node"><title>SubmissionsController</title>
<path fill="none" stroke="black" d="M558,-609.5C558,-609.5 688,-609.5 688,-609.5 694,-609.5 700,-615.5 700,-621.5 700,-621.5 700,-855.5 700,-855.5 700,-861.5 694,-867.5 688,-867.5 688,-867.5 558,-867.5 558,-867.5 552,-867.5 546,-861.5 546,-855.5 546,-855.5 546,-621.5 546,-621.5 546,-615.5 552,-609.5 558,-609.5"/>
<text text-anchor="middle" x="623" y="-852.3" font-family="Times,serif" font-size="14.00">SubmissionsController</text>
<polyline fill="none" stroke="black" points="546,-844.5 700,-844.5 "/>
<text text-anchor="start" x="554" y="-829.3" font-family="Times,serif" font-size="14.00">compile</text>
<text text-anchor="start" x="554" y="-814.3" font-family="Times,serif" font-size="14.00">run</text>
<text text-anchor="start" x="554" y="-799.3" font-family="Times,serif" font-size="14.00">show</text>
<text text-anchor="start" x="554" y="-784.3" font-family="Times,serif" font-size="14.00">submit</text>
<text text-anchor="start" x="554" y="-769.3" font-family="Times,serif" font-size="14.00">unsubmit</text>
<text text-anchor="start" x="554" y="-754.3" font-family="Times,serif" font-size="14.00">update</text>
<polyline fill="none" stroke="black" points="546,-746.5 700,-746.5 "/>
<polyline fill="none" stroke="black" points="546,-722.5 700,-722.5 "/>
<text text-anchor="start" x="554" y="-707.3" font-family="Times,serif" font-size="14.00">_layout</text>
<text text-anchor="start" x="554" y="-692.3" font-family="Times,serif" font-size="14.00">get_assignment</text>
<text text-anchor="start" x="554" y="-677.3" font-family="Times,serif" font-size="14.00">get_course</text>
<text text-anchor="start" x="554" y="-662.3" font-family="Times,serif" font-size="14.00">make_pdf</text>
<text text-anchor="start" x="554" y="-647.3" font-family="Times,serif" font-size="14.00">require_instructor_owner</text>
<text text-anchor="start" x="554" y="-632.3" font-family="Times,serif" font-size="14.00">require_owner</text>
<text text-anchor="start" x="554" y="-617.3" font-family="Times,serif" font-size="14.00">submission_params</text>
</g>
<!-- TestCasesController -->
<g id="node4" class="node"><title>TestCasesController</title>
<path fill="none" stroke="black" d="M642,-273.5C642,-273.5 745,-273.5 745,-273.5 751,-273.5 757,-279.5 757,-285.5 757,-285.5 757,-429.5 757,-429.5 757,-435.5 751,-441.5 745,-441.5 745,-441.5 642,-441.5 642,-441.5 636,-441.5 630,-435.5 630,-429.5 630,-429.5 630,-285.5 630,-285.5 630,-279.5 636,-273.5 642,-273.5"/>
<text text-anchor="middle" x="693.5" y="-426.3" font-family="Times,serif" font-size="14.00">TestCasesController</text>
<polyline fill="none" stroke="black" points="630,-418.5 757,-418.5 "/>
<text text-anchor="start" x="638" y="-403.3" font-family="Times,serif" font-size="14.00">create_output</text>
<text text-anchor="start" x="638" y="-388.3" font-family="Times,serif" font-size="14.00">show</text>
<text text-anchor="start" x="638" y="-373.3" font-family="Times,serif" font-size="14.00">update</text>
<polyline fill="none" stroke="black" points="630,-365.5 757,-365.5 "/>
<polyline fill="none" stroke="black" points="630,-341.5 757,-341.5 "/>
<text text-anchor="start" x="638" y="-326.3" font-family="Times,serif" font-size="14.00">_layout</text>
<text text-anchor="start" x="638" y="-311.3" font-family="Times,serif" font-size="14.00">get_assignment</text>
<text text-anchor="start" x="638" y="-296.3" font-family="Times,serif" font-size="14.00">get_course</text>
<text text-anchor="start" x="638" y="-281.3" font-family="Times,serif" font-size="14.00">test_case_params</text>
</g>
<!-- RunMethodsController -->
<g id="node5" class="node"><title>RunMethodsController</title>
<path fill="none" stroke="black" d="M54,-147.5C54,-147.5 173,-147.5 173,-147.5 179,-147.5 185,-153.5 185,-159.5 185,-159.5 185,-318.5 185,-318.5 185,-324.5 179,-330.5 173,-330.5 173,-330.5 54,-330.5 54,-330.5 48,-330.5 42,-324.5 42,-318.5 42,-318.5 42,-159.5 42,-159.5 42,-153.5 48,-147.5 54,-147.5"/>
<text text-anchor="middle" x="113.5" y="-315.3" font-family="Times,serif" font-size="14.00">RunMethodsController</text>
<polyline fill="none" stroke="black" points="42,-307.5 185,-307.5 "/>
<text text-anchor="start" x="50" y="-292.3" font-family="Times,serif" font-size="14.00">create</text>
<text text-anchor="start" x="50" y="-277.3" font-family="Times,serif" font-size="14.00">destroy</text>
<text text-anchor="start" x="50" y="-262.3" font-family="Times,serif" font-size="14.00">edit</text>
<text text-anchor="start" x="50" y="-247.3" font-family="Times,serif" font-size="14.00">new</text>
<text text-anchor="start" x="50" y="-232.3" font-family="Times,serif" font-size="14.00">show</text>
<text text-anchor="start" x="50" y="-217.3" font-family="Times,serif" font-size="14.00">update</text>
<polyline fill="none" stroke="black" points="42,-209.5 185,-209.5 "/>
<polyline fill="none" stroke="black" points="42,-185.5 185,-185.5 "/>
<text text-anchor="start" x="50" y="-170.3" font-family="Times,serif" font-size="14.00">_layout</text>
<text text-anchor="start" x="50" y="-155.3" font-family="Times,serif" font-size="14.00">run_method_params</text>
</g>
<!-- UserSessionsController -->
<g id="node6" class="node"><title>UserSessionsController</title>
<path fill="none" stroke="black" d="M684,-21.5C684,-21.5 804,-21.5 804,-21.5 810,-21.5 816,-27.5 816,-33.5 816,-33.5 816,-147.5 816,-147.5 816,-153.5 810,-159.5 804,-159.5 804,-159.5 684,-159.5 684,-159.5 678,-159.5 672,-153.5 672,-147.5 672,-147.5 672,-33.5 672,-33.5 672,-27.5 678,-21.5 684,-21.5"/>
<text text-anchor="middle" x="744" y="-144.3" font-family="Times,serif" font-size="14.00">UserSessionsController</text>
<polyline fill="none" stroke="black" points="672,-136.5 816,-136.5 "/>
<text text-anchor="start" x="680" y="-121.3" font-family="Times,serif" font-size="14.00">create</text>
<text text-anchor="start" x="680" y="-106.3" font-family="Times,serif" font-size="14.00">destroy</text>
<text text-anchor="start" x="680" y="-91.3" font-family="Times,serif" font-size="14.00">new</text>
<text text-anchor="start" x="680" y="-76.3" font-family="Times,serif" font-size="14.00">require_no_user</text>
<polyline fill="none" stroke="black" points="672,-68.5 816,-68.5 "/>
<polyline fill="none" stroke="black" points="672,-44.5 816,-44.5 "/>
<text text-anchor="start" x="680" y="-29.3" font-family="Times,serif" font-size="14.00">_layout</text>
</g>
<!-- ApplicationController -->
<g id="node7" class="node"><title>ApplicationController</title>
<path fill="none" stroke="black" d="M159,-672.5C159,-672.5 287,-672.5 287,-672.5 293,-672.5 299,-678.5 299,-684.5 299,-684.5 299,-844.5 299,-844.5 299,-850.5 293,-856.5 287,-856.5 287,-856.5 159,-856.5 159,-856.5 153,-856.5 147,-850.5 147,-844.5 147,-844.5 147,-684.5 147,-684.5 147,-678.5 153,-672.5 159,-672.5"/>
<text text-anchor="middle" x="223" y="-841.3" font-family="Times,serif" font-size="14.00">ApplicationController</text>
<polyline fill="none" stroke="black" points="147,-833.5 299,-833.5 "/>
<polyline fill="none" stroke="black" points="147,-809.5 299,-809.5 "/>
<polyline fill="none" stroke="black" points="147,-785.5 299,-785.5 "/>
<text text-anchor="start" x="155" y="-770.3" font-family="Times,serif" font-size="14.00">_layout</text>
<text text-anchor="start" x="155" y="-755.3" font-family="Times,serif" font-size="14.00">current_user</text>
<text text-anchor="start" x="155" y="-740.3" font-family="Times,serif" font-size="14.00">current_user_session</text>
<text text-anchor="start" x="155" y="-725.3" font-family="Times,serif" font-size="14.00">redirect_back_or_default</text>
<text text-anchor="start" x="155" y="-710.3" font-family="Times,serif" font-size="14.00">require_no_user</text>
<text text-anchor="start" x="155" y="-695.3" font-family="Times,serif" font-size="14.00">require_user</text>
<text text-anchor="start" x="155" y="-680.3" font-family="Times,serif" font-size="14.00">store_location</text>
</g>
<!-- CommentsController -->
<g id="node8" class="node"><title>CommentsController</title>
<path fill="none" stroke="black" d="M243,-0.5C243,-0.5 351,-0.5 351,-0.5 357,-0.5 363,-6.5 363,-12.5 363,-12.5 363,-111.5 363,-111.5 363,-117.5 357,-123.5 351,-123.5 351,-123.5 243,-123.5 243,-123.5 237,-123.5 231,-117.5 231,-111.5 231,-111.5 231,-12.5 231,-12.5 231,-6.5 237,-0.5 243,-0.5"/>
<text text-anchor="middle" x="297" y="-108.3" font-family="Times,serif" font-size="14.00">CommentsController</text>
<polyline fill="none" stroke="black" points="231,-100.5 363,-100.5 "/>
<text text-anchor="start" x="239" y="-85.3" font-family="Times,serif" font-size="14.00">create</text>
<text text-anchor="start" x="239" y="-70.3" font-family="Times,serif" font-size="14.00">destroy</text>
<polyline fill="none" stroke="black" points="231,-62.5 363,-62.5 "/>
<polyline fill="none" stroke="black" points="231,-38.5 363,-38.5 "/>
<text text-anchor="start" x="239" y="-23.3" font-family="Times,serif" font-size="14.00">_layout</text>
<text text-anchor="start" x="239" y="-8.3" font-family="Times,serif" font-size="14.00">comment_params</text>
</g>
<!-- UsersController -->
<g id="node9" class="node"><title>UsersController</title>
<path fill="none" stroke="black" d="M96,-378.5C96,-378.5 185,-378.5 185,-378.5 191,-378.5 197,-384.5 197,-390.5 197,-390.5 197,-624.5 197,-624.5 197,-630.5 191,-636.5 185,-636.5 185,-636.5 96,-636.5 96,-636.5 90,-636.5 84,-630.5 84,-624.5 84,-624.5 84,-390.5 84,-390.5 84,-384.5 90,-378.5 96,-378.5"/>
<text text-anchor="middle" x="140.5" y="-621.3" font-family="Times,serif" font-size="14.00">UsersController</text>
<polyline fill="none" stroke="black" points="84,-613.5 197,-613.5 "/>
<text text-anchor="start" x="92" y="-598.3" font-family="Times,serif" font-size="14.00">change_password</text>
<text text-anchor="start" x="92" y="-583.3" font-family="Times,serif" font-size="14.00">create</text>
<text text-anchor="start" x="92" y="-568.3" font-family="Times,serif" font-size="14.00">dashboard</text>
<text text-anchor="start" x="92" y="-553.3" font-family="Times,serif" font-size="14.00">destroy</text>
<text text-anchor="start" x="92" y="-538.3" font-family="Times,serif" font-size="14.00">edit</text>
<text text-anchor="start" x="92" y="-523.3" font-family="Times,serif" font-size="14.00">index</text>
<text text-anchor="start" x="92" y="-508.3" font-family="Times,serif" font-size="14.00">new</text>
<text text-anchor="start" x="92" y="-493.3" font-family="Times,serif" font-size="14.00">require_admin</text>
<text text-anchor="start" x="92" y="-478.3" font-family="Times,serif" font-size="14.00">settings</text>
<text text-anchor="start" x="92" y="-463.3" font-family="Times,serif" font-size="14.00">show</text>
<text text-anchor="start" x="92" y="-448.3" font-family="Times,serif" font-size="14.00">update</text>
<polyline fill="none" stroke="black" points="84,-440.5 197,-440.5 "/>
<polyline fill="none" stroke="black" points="84,-416.5 197,-416.5 "/>
<text text-anchor="start" x="92" y="-401.3" font-family="Times,serif" font-size="14.00">_layout</text>
<text text-anchor="start" x="92" y="-386.3" font-family="Times,serif" font-size="14.00">user_params</text>
</g>
<!-- InputsController -->
<g id="node10" class="node"><title>InputsController</title>
<path fill="none" stroke="black" d="M12,-693.5C12,-693.5 94,-693.5 94,-693.5 100,-693.5 106,-699.5 106,-705.5 106,-705.5 106,-864.5 106,-864.5 106,-870.5 100,-876.5 94,-876.5 94,-876.5 12,-876.5 12,-876.5 6,-876.5 0,-870.5 0,-864.5 0,-864.5 0,-705.5 0,-705.5 0,-699.5 6,-693.5 12,-693.5"/>
<text text-anchor="middle" x="53" y="-861.3" font-family="Times,serif" font-size="14.00">InputsController</text>
<polyline fill="none" stroke="black" points="0,-853.5 106,-853.5 "/>
<text text-anchor="start" x="8" y="-838.3" font-family="Times,serif" font-size="14.00">create</text>
<text text-anchor="start" x="8" y="-823.3" font-family="Times,serif" font-size="14.00">destroy</text>
<text text-anchor="start" x="8" y="-808.3" font-family="Times,serif" font-size="14.00">edit</text>
<text text-anchor="start" x="8" y="-793.3" font-family="Times,serif" font-size="14.00">new</text>
<text text-anchor="start" x="8" y="-778.3" font-family="Times,serif" font-size="14.00">show</text>
<text text-anchor="start" x="8" y="-763.3" font-family="Times,serif" font-size="14.00">update</text>
<polyline fill="none" stroke="black" points="0,-755.5 106,-755.5 "/>
<polyline fill="none" stroke="black" points="0,-731.5 106,-731.5 "/>
<text text-anchor="start" x="8" y="-716.3" font-family="Times,serif" font-size="14.00">_layout</text>
<text text-anchor="start" x="8" y="-701.3" font-family="Times,serif" font-size="14.00">input_params</text>
</g>
<!-- UploadDataController -->
<g id="node11" class="node"><title>UploadDataController</title>
<path fill="none" stroke="black" d="M348,-609.5C348,-609.5 485,-609.5 485,-609.5 491,-609.5 497,-615.5 497,-621.5 497,-621.5 497,-855.5 497,-855.5 497,-861.5 491,-867.5 485,-867.5 485,-867.5 348,-867.5 348,-867.5 342,-867.5 336,-861.5 336,-855.5 336,-855.5 336,-621.5 336,-621.5 336,-615.5 342,-609.5 348,-609.5"/>
<text text-anchor="middle" x="416.5" y="-852.3" font-family="Times,serif" font-size="14.00">UploadDataController</text>
<polyline fill="none" stroke="black" points="336,-844.5 497,-844.5 "/>
<text text-anchor="start" x="344" y="-829.3" font-family="Times,serif" font-size="14.00">create</text>
<text text-anchor="start" x="344" y="-814.3" font-family="Times,serif" font-size="14.00">create_blank</text>
<text text-anchor="start" x="344" y="-799.3" font-family="Times,serif" font-size="14.00">destroy</text>
<text text-anchor="start" x="344" y="-784.3" font-family="Times,serif" font-size="14.00">download_file</text>
<text text-anchor="start" x="344" y="-769.3" font-family="Times,serif" font-size="14.00">show</text>
<text text-anchor="start" x="344" y="-754.3" font-family="Times,serif" font-size="14.00">update</text>
<polyline fill="none" stroke="black" points="336,-746.5 497,-746.5 "/>
<polyline fill="none" stroke="black" points="336,-722.5 497,-722.5 "/>
<text text-anchor="start" x="344" y="-707.3" font-family="Times,serif" font-size="14.00">_layout</text>
<text text-anchor="start" x="344" y="-692.3" font-family="Times,serif" font-size="14.00">get_all_comments</text>
<text text-anchor="start" x="344" y="-677.3" font-family="Times,serif" font-size="14.00">require_data_owner</text>
<text text-anchor="start" x="344" y="-662.3" font-family="Times,serif" font-size="14.00">require_destination_owner</text>
<text text-anchor="start" x="344" y="-647.3" font-family="Times,serif" font-size="14.00">require_instructor_owner</text>
<text text-anchor="start" x="344" y="-632.3" font-family="Times,serif" font-size="14.00">require_not_submitted</text>
<text text-anchor="start" x="344" y="-617.3" font-family="Times,serif" font-size="14.00">upload_data_params</text>
</g>
<!-- AssignmentsController -->
<g id="node12" class="node"><title>AssignmentsController</title>
<path fill="none" stroke="black" d="M432,-273.5C432,-273.5 569,-273.5 569,-273.5 575,-273.5 581,-279.5 581,-285.5 581,-285.5 581,-564.5 581,-564.5 581,-570.5 575,-576.5 569,-576.5 569,-576.5 432,-576.5 432,-576.5 426,-576.5 420,-570.5 420,-564.5 420,-564.5 420,-285.5 420,-285.5 420,-279.5 426,-273.5 432,-273.5"/>
<text text-anchor="middle" x="500.5" y="-561.3" font-family="Times,serif" font-size="14.00">AssignmentsController</text>
<polyline fill="none" stroke="black" points="420,-553.5 581,-553.5 "/>
<text text-anchor="start" x="428" y="-538.3" font-family="Times,serif" font-size="14.00">all_grades</text>
<text text-anchor="start" x="428" y="-523.3" font-family="Times,serif" font-size="14.00">copy</text>
<text text-anchor="start" x="428" y="-508.3" font-family="Times,serif" font-size="14.00">copy_create</text>
<text text-anchor="start" x="428" y="-493.3" font-family="Times,serif" font-size="14.00">create</text>
<text text-anchor="start" x="428" y="-478.3" font-family="Times,serif" font-size="14.00">destroy</text>
<text text-anchor="start" x="428" y="-463.3" font-family="Times,serif" font-size="14.00">download_grades</text>
<text text-anchor="start" x="428" y="-448.3" font-family="Times,serif" font-size="14.00">edit</text>
<text text-anchor="start" x="428" y="-433.3" font-family="Times,serif" font-size="14.00">grade_all</text>
<text text-anchor="start" x="428" y="-418.3" font-family="Times,serif" font-size="14.00">new</text>
<text text-anchor="start" x="428" y="-403.3" font-family="Times,serif" font-size="14.00">show</text>
<text text-anchor="start" x="428" y="-388.3" font-family="Times,serif" font-size="14.00">unsubmit_all_assignments</text>
<text text-anchor="start" x="428" y="-373.3" font-family="Times,serif" font-size="14.00">update</text>
<polyline fill="none" stroke="black" points="420,-365.5 581,-365.5 "/>
<polyline fill="none" stroke="black" points="420,-341.5 581,-341.5 "/>
<text text-anchor="start" x="428" y="-326.3" font-family="Times,serif" font-size="14.00">_layout</text>
<text text-anchor="start" x="428" y="-311.3" font-family="Times,serif" font-size="14.00">assignment_params</text>
<text text-anchor="start" x="428" y="-296.3" font-family="Times,serif" font-size="14.00">convert_dates_to_utc</text>
<text text-anchor="start" x="428" y="-281.3" font-family="Times,serif" font-size="14.00">copy_files</text>
</g>
</g>
</svg>
