<?xml version="1.0" encoding="UTF-8" standalone="no"?>
<!DOCTYPE svg PUBLIC "-//W3C//DTD SVG 1.1//EN"
 "http://www.w3.org/Graphics/SVG/1.1/DTD/svg11.dtd">
<!-- Generated by graphviz version 2.36.0 (20140111.2315)
 -->
<!-- Title: models_diagram Pages: 1 -->
<svg width="628pt" height="1112pt"
 viewBox="0.00 0.00 628.00 1112.00" xmlns="http://www.w3.org/2000/svg" xmlns:xlink="http://www.w3.org/1999/xlink">
<g id="graph0" class="graph" transform="scale(1 1) rotate(0) translate(4 1108)">
<title>models_diagram</title>
<polygon fill="white" stroke="none" points="-4,4 -4,-1108 624,-1108 624,4 -4,4"/>
<!-- _diagram_info -->
<g id="node1" class="node"><title>_diagram_info</title>
<text text-anchor="start" x="7" y="-1044.6" font-family="Times,serif" font-size="13.00">Models diagram</text>
<text text-anchor="start" x="7" y="-1030.6" font-family="Times,serif" font-size="13.00">Date: Apr 25 2015 &#45; 13:47</text>
<text text-anchor="start" x="7" y="-1016.6" font-family="Times,serif" font-size="13.00">Migration version: 20150326044733</text>
<text text-anchor="start" x="7" y="-1002.6" font-family="Times,serif" font-size="13.00">Generated by RailRoady 1.2.0</text>
<text text-anchor="start" x="7" y="-988.6" font-family="Times,serif" font-size="13.00">http://railroady.prestonlee.com</text>
</g>
<!-- Submission -->
<g id="node2" class="node"><title>Submission</title>
<path fill="none" stroke="black" d="M392,-409C392,-409 508,-409 508,-409 514,-409 520,-415 520,-421 520,-421 520,-563 520,-563 520,-569 514,-575 508,-575 508,-575 392,-575 392,-575 386,-575 380,-569 380,-563 380,-563 380,-421 380,-421 380,-415 386,-409 392,-409"/>
<text text-anchor="middle" x="450" y="-559.8" font-family="Times,serif" font-size="14.00">Submission</text>
<polyline fill="none" stroke="black" points="380,-552 520,-552 "/>
<text text-anchor="start" x="388" y="-536.8" font-family="Times,serif" font-size="14.00">id :integer</text>
<text text-anchor="start" x="388" y="-521.8" font-family="Times,serif" font-size="14.00">grade :float</text>
<text text-anchor="start" x="388" y="-506.8" font-family="Times,serif" font-size="14.00">note :text</text>
<text text-anchor="start" x="388" y="-491.8" font-family="Times,serif" font-size="14.00">assignment_id :integer</text>
<text text-anchor="start" x="388" y="-476.8" font-family="Times,serif" font-size="14.00">user_id :integer</text>
<text text-anchor="start" x="388" y="-461.8" font-family="Times,serif" font-size="14.00">created_at :datetime</text>
<text text-anchor="start" x="388" y="-446.8" font-family="Times,serif" font-size="14.00">updated_at :datetime</text>
<text text-anchor="start" x="388" y="-431.8" font-family="Times,serif" font-size="14.00">submitted :boolean</text>
<text text-anchor="start" x="388" y="-416.8" font-family="Times,serif" font-size="14.00">submit_time :datetime</text>
</g>
<!-- RunSave -->
<g id="node3" class="node"><title>RunSave</title>
<path fill="none" stroke="black" d="M476,-212.5C476,-212.5 592,-212.5 592,-212.5 598,-212.5 604,-218.5 604,-224.5 604,-224.5 604,-351.5 604,-351.5 604,-357.5 598,-363.5 592,-363.5 592,-363.5 476,-363.5 476,-363.5 470,-363.5 464,-357.5 464,-351.5 464,-351.5 464,-224.5 464,-224.5 464,-218.5 470,-212.5 476,-212.5"/>
<text text-anchor="middle" x="534" y="-348.3" font-family="Times,serif" font-size="14.00">RunSave</text>
<polyline fill="none" stroke="black" points="464,-340.5 604,-340.5 "/>
<text text-anchor="start" x="472" y="-325.3" font-family="Times,serif" font-size="14.00">id :integer</text>
<text text-anchor="start" x="472" y="-310.3" font-family="Times,serif" font-size="14.00">submission_id :integer</text>
<text text-anchor="start" x="472" y="-295.3" font-family="Times,serif" font-size="14.00">difference :binary</text>
<text text-anchor="start" x="472" y="-280.3" font-family="Times,serif" font-size="14.00">pass :boolean</text>
<text text-anchor="start" x="472" y="-265.3" font-family="Times,serif" font-size="14.00">output :binary</text>
<text text-anchor="start" x="472" y="-250.3" font-family="Times,serif" font-size="14.00">created_at :datetime</text>
<text text-anchor="start" x="472" y="-235.3" font-family="Times,serif" font-size="14.00">updated_at :datetime</text>
<text text-anchor="start" x="472" y="-220.3" font-family="Times,serif" font-size="14.00">input_id :integer</text>
</g>
<!-- Submission&#45;&gt;RunSave -->
<g id="edge2" class="edge"><title>Submission&#45;&gt;RunSave</title>
<path fill="none" stroke="#642666" d="M487.245,-401.434C491.186,-391.957 495.183,-382.345 499.096,-372.936"/>
<ellipse fill="none" stroke="#642666" cx="485.702" cy="-405.145" rx="4.00002" ry="4.00002"/>
<polygon fill="#642666" stroke="#642666" points="499.135,-372.841 507.13,-365.335 501.055,-368.224 502.975,-363.608 502.975,-363.608 502.975,-363.608 501.055,-368.224 498.82,-361.88 499.135,-372.841 499.135,-372.841"/>
</g>
<!-- UploadDatum -->
<g id="node11" class="node"><title>UploadDatum</title>
<path fill="none" stroke="black" d="M318,-205C318,-205 434,-205 434,-205 440,-205 446,-211 446,-217 446,-217 446,-359 446,-359 446,-365 440,-371 434,-371 434,-371 318,-371 318,-371 312,-371 306,-365 306,-359 306,-359 306,-217 306,-217 306,-211 312,-205 318,-205"/>
<text text-anchor="middle" x="376" y="-355.8" font-family="Times,serif" font-size="14.00">UploadDatum</text>
<polyline fill="none" stroke="black" points="306,-348 446,-348 "/>
<text text-anchor="start" x="314" y="-332.8" font-family="Times,serif" font-size="14.00">id :integer</text>
<text text-anchor="start" x="314" y="-317.8" font-family="Times,serif" font-size="14.00">name :string</text>
<text text-anchor="start" x="314" y="-302.8" font-family="Times,serif" font-size="14.00">contents :binary</text>
<text text-anchor="start" x="314" y="-287.8" font-family="Times,serif" font-size="14.00">created_at :datetime</text>
<text text-anchor="start" x="314" y="-272.8" font-family="Times,serif" font-size="14.00">updated_at :datetime</text>
<text text-anchor="start" x="314" y="-257.8" font-family="Times,serif" font-size="14.00">submission_id :integer</text>
<text text-anchor="start" x="314" y="-242.8" font-family="Times,serif" font-size="14.00">test_case_id :integer</text>
<text text-anchor="start" x="314" y="-227.8" font-family="Times,serif" font-size="14.00">file_type :string</text>
<text text-anchor="start" x="314" y="-212.8" font-family="Times,serif" font-size="14.00">shared :boolean</text>
</g>
<!-- Submission&#45;&gt;UploadDatum -->
<g id="edge1" class="edge"><title>Submission&#45;&gt;UploadDatum</title>
<path fill="none" stroke="#de8dd2" d="M417.106,-401.209C414.639,-394.473 412.147,-387.67 409.674,-380.922"/>
<ellipse fill="none" stroke="#de8dd2" cx="418.525" cy="-405.083" rx="4.00001" ry="4.00001"/>
<polygon fill="#de8dd2" stroke="#de8dd2" points="409.512,-380.478 410.297,-369.54 407.792,-375.783 406.072,-371.088 406.072,-371.088 406.072,-371.088 407.792,-375.783 401.847,-372.636 409.512,-380.478 409.512,-380.478"/>
</g>
<!-- RunMethod -->
<g id="node4" class="node"><title>RunMethod</title>
<path fill="none" stroke="black" d="M158,-220C158,-220 268,-220 268,-220 274,-220 280,-226 280,-232 280,-232 280,-344 280,-344 280,-350 274,-356 268,-356 268,-356 158,-356 158,-356 152,-356 146,-350 146,-344 146,-344 146,-232 146,-232 146,-226 152,-220 158,-220"/>
<text text-anchor="middle" x="213" y="-340.8" font-family="Times,serif" font-size="14.00">RunMethod</text>
<polyline fill="none" stroke="black" points="146,-333 280,-333 "/>
<text text-anchor="start" x="154" y="-317.8" font-family="Times,serif" font-size="14.00">id :integer</text>
<text text-anchor="start" x="154" y="-302.8" font-family="Times,serif" font-size="14.00">name :string</text>
<text text-anchor="start" x="154" y="-287.8" font-family="Times,serif" font-size="14.00">run_command :string</text>
<text text-anchor="start" x="154" y="-272.8" font-family="Times,serif" font-size="14.00">description :text</text>
<text text-anchor="start" x="154" y="-257.8" font-family="Times,serif" font-size="14.00">test_case_id :integer</text>
<text text-anchor="start" x="154" y="-242.8" font-family="Times,serif" font-size="14.00">created_at :datetime</text>
<text text-anchor="start" x="154" y="-227.8" font-family="Times,serif" font-size="14.00">updated_at :datetime</text>
</g>
<!-- Input -->
<g id="node10" class="node"><title>Input</title>
<path fill="none" stroke="black" d="M146.5,-1C146.5,-1 271.5,-1 271.5,-1 277.5,-1 283.5,-7 283.5,-13 283.5,-13 283.5,-155 283.5,-155 283.5,-161 277.5,-167 271.5,-167 271.5,-167 146.5,-167 146.5,-167 140.5,-167 134.5,-161 134.5,-155 134.5,-155 134.5,-13 134.5,-13 134.5,-7 140.5,-1 146.5,-1"/>
<text text-anchor="middle" x="209" y="-151.8" font-family="Times,serif" font-size="14.00">Input</text>
<polyline fill="none" stroke="black" points="134.5,-144 283.5,-144 "/>
<text text-anchor="start" x="142.5" y="-128.8" font-family="Times,serif" font-size="14.00">id :integer</text>
<text text-anchor="start" x="142.5" y="-113.8" font-family="Times,serif" font-size="14.00">name :string</text>
<text text-anchor="start" x="142.5" y="-98.8" font-family="Times,serif" font-size="14.00">description :text</text>
<text text-anchor="start" x="142.5" y="-83.8" font-family="Times,serif" font-size="14.00">data :text</text>
<text text-anchor="start" x="142.5" y="-68.8" font-family="Times,serif" font-size="14.00">output :binary</text>
<text text-anchor="start" x="142.5" y="-53.8" font-family="Times,serif" font-size="14.00">student_visible :boolean</text>
<text text-anchor="start" x="142.5" y="-38.8" font-family="Times,serif" font-size="14.00">run_method_id :integer</text>
<text text-anchor="start" x="142.5" y="-23.8" font-family="Times,serif" font-size="14.00">created_at :datetime</text>
<text text-anchor="start" x="142.5" y="-8.8" font-family="Times,serif" font-size="14.00">updated_at :datetime</text>
</g>
<!-- RunMethod&#45;&gt;Input -->
<g id="edge3" class="edge"><title>RunMethod&#45;&gt;Input</title>
<path fill="none" stroke="#dfd968" d="M211.51,-211.733C211.287,-200.469 211.054,-188.747 210.825,-177.181"/>
<ellipse fill="none" stroke="#dfd968" cx="211.589" cy="-215.738" rx="4" ry="4"/>
<polygon fill="#dfd968" stroke="#dfd968" points="210.823,-177.07 215.124,-166.983 210.724,-172.071 210.625,-167.072 210.625,-167.072 210.625,-167.072 210.724,-172.071 206.126,-167.162 210.823,-177.07 210.823,-177.07"/>
</g>
<!-- Course -->
<g id="node5" class="node"><title>Course</title>
<path fill="none" stroke="black" d="M243.5,-937C243.5,-937 350.5,-937 350.5,-937 356.5,-937 362.5,-943 362.5,-949 362.5,-949 362.5,-1091 362.5,-1091 362.5,-1097 356.5,-1103 350.5,-1103 350.5,-1103 243.5,-1103 243.5,-1103 237.5,-1103 231.5,-1097 231.5,-1091 231.5,-1091 231.5,-949 231.5,-949 231.5,-943 237.5,-937 243.5,-937"/>
<text text-anchor="middle" x="297" y="-1087.8" font-family="Times,serif" font-size="14.00">Course</text>
<polyline fill="none" stroke="black" points="231.5,-1080 362.5,-1080 "/>
<text text-anchor="start" x="239.5" y="-1064.8" font-family="Times,serif" font-size="14.00">id :integer</text>
<text text-anchor="start" x="239.5" y="-1049.8" font-family="Times,serif" font-size="14.00">name :string</text>
<text text-anchor="start" x="239.5" y="-1034.8" font-family="Times,serif" font-size="14.00">open :boolean</text>
<text text-anchor="start" x="239.5" y="-1019.8" font-family="Times,serif" font-size="14.00">description :text</text>
<text text-anchor="start" x="239.5" y="-1004.8" font-family="Times,serif" font-size="14.00">join_token :string</text>
<text text-anchor="start" x="239.5" y="-989.8" font-family="Times,serif" font-size="14.00">created_at :datetime</text>
<text text-anchor="start" x="239.5" y="-974.8" font-family="Times,serif" font-size="14.00">updated_at :datetime</text>
<text text-anchor="start" x="239.5" y="-959.8" font-family="Times,serif" font-size="14.00">year :integer</text>
<text text-anchor="start" x="239.5" y="-944.8" font-family="Times,serif" font-size="14.00">term :string</text>
</g>
<!-- Assignment -->
<g id="node8" class="node"><title>Assignment</title>
<path fill="none" stroke="black" d="M234.5,-665.5C234.5,-665.5 341.5,-665.5 341.5,-665.5 347.5,-665.5 353.5,-671.5 353.5,-677.5 353.5,-677.5 353.5,-834.5 353.5,-834.5 353.5,-840.5 347.5,-846.5 341.5,-846.5 341.5,-846.5 234.5,-846.5 234.5,-846.5 228.5,-846.5 222.5,-840.5 222.5,-834.5 222.5,-834.5 222.5,-677.5 222.5,-677.5 222.5,-671.5 228.5,-665.5 234.5,-665.5"/>
<text text-anchor="middle" x="288" y="-831.3" font-family="Times,serif" font-size="14.00">Assignment</text>
<polyline fill="none" stroke="black" points="222.5,-823.5 353.5,-823.5 "/>
<text text-anchor="start" x="230.5" y="-808.3" font-family="Times,serif" font-size="14.00">id :integer</text>
<text text-anchor="start" x="230.5" y="-793.3" font-family="Times,serif" font-size="14.00">lock :boolean</text>
<text text-anchor="start" x="230.5" y="-778.3" font-family="Times,serif" font-size="14.00">due_date :datetime</text>
<text text-anchor="start" x="230.5" y="-763.3" font-family="Times,serif" font-size="14.00">start_date :datetime</text>
<text text-anchor="start" x="230.5" y="-748.3" font-family="Times,serif" font-size="14.00">description :text</text>
<text text-anchor="start" x="230.5" y="-733.3" font-family="Times,serif" font-size="14.00">course_id :integer</text>
<text text-anchor="start" x="230.5" y="-718.3" font-family="Times,serif" font-size="14.00">created_at :datetime</text>
<text text-anchor="start" x="230.5" y="-703.3" font-family="Times,serif" font-size="14.00">updated_at :datetime</text>
<text text-anchor="start" x="230.5" y="-688.3" font-family="Times,serif" font-size="14.00">name :string</text>
<text text-anchor="start" x="230.5" y="-673.3" font-family="Times,serif" font-size="14.00">total_grade :float</text>
</g>
<!-- Course&#45;&gt;Assignment -->
<g id="edge5" class="edge"><title>Course&#45;&gt;Assignment</title>
<path fill="none" stroke="#8a53c2" d="M293.897,-928.668C293.099,-905.445 292.236,-880.328 291.423,-856.662"/>
<ellipse fill="none" stroke="#8a53c2" cx="294.04" cy="-932.823" rx="4" ry="4"/>
<polygon fill="#8a53c2" stroke="#8a53c2" points="291.422,-856.611 295.576,-846.463 291.25,-851.614 291.078,-846.617 291.078,-846.617 291.078,-846.617 291.25,-851.614 286.581,-846.772 291.422,-856.611 291.422,-856.611"/>
</g>
<!-- User -->
<g id="node13" class="node"><title>User</title>
<path fill="none" stroke="black" d="M383.5,-613C383.5,-613 524.5,-613 524.5,-613 530.5,-613 536.5,-619 536.5,-625 536.5,-625 536.5,-887 536.5,-887 536.5,-893 530.5,-899 524.5,-899 524.5,-899 383.5,-899 383.5,-899 377.5,-899 371.5,-893 371.5,-887 371.5,-887 371.5,-625 371.5,-625 371.5,-619 377.5,-613 383.5,-613"/>
<text text-anchor="middle" x="454" y="-883.8" font-family="Times,serif" font-size="14.00">User</text>
<polyline fill="none" stroke="black" points="371.5,-876 536.5,-876 "/>
<text text-anchor="start" x="379.5" y="-860.8" font-family="Times,serif" font-size="14.00">id :integer</text>
<text text-anchor="start" x="379.5" y="-845.8" font-family="Times,serif" font-size="14.00">name :string</text>
<text text-anchor="start" x="379.5" y="-830.8" font-family="Times,serif" font-size="14.00">crypted_password :string</text>
<text text-anchor="start" x="379.5" y="-815.8" font-family="Times,serif" font-size="14.00">password_salt :string</text>
<text text-anchor="start" x="379.5" y="-800.8" font-family="Times,serif" font-size="14.00">email :string</text>
<text text-anchor="start" x="379.5" y="-785.8" font-family="Times,serif" font-size="14.00">persistence_token :string</text>
<text text-anchor="start" x="379.5" y="-770.8" font-family="Times,serif" font-size="14.00">single_access_token :string</text>
<text text-anchor="start" x="379.5" y="-755.8" font-family="Times,serif" font-size="14.00">perishable_token :string</text>
<text text-anchor="start" x="379.5" y="-740.8" font-family="Times,serif" font-size="14.00">login_count :integer</text>
<text text-anchor="start" x="379.5" y="-725.8" font-family="Times,serif" font-size="14.00">failed_login_count :integer</text>
<text text-anchor="start" x="379.5" y="-710.8" font-family="Times,serif" font-size="14.00">last_request_at :datetime</text>
<text text-anchor="start" x="379.5" y="-695.8" font-family="Times,serif" font-size="14.00">current_login_at :datetime</text>
<text text-anchor="start" x="379.5" y="-680.8" font-family="Times,serif" font-size="14.00">last_login_at :datetime</text>
<text text-anchor="start" x="379.5" y="-665.8" font-family="Times,serif" font-size="14.00">current_login_ip :string</text>
<text text-anchor="start" x="379.5" y="-650.8" font-family="Times,serif" font-size="14.00">last_login_ip :string</text>
<text text-anchor="start" x="379.5" y="-635.8" font-family="Times,serif" font-size="14.00">created_at :datetime</text>
<text text-anchor="start" x="379.5" y="-620.8" font-family="Times,serif" font-size="14.00">updated_at :datetime</text>
</g>
<!-- Course&#45;&gt;User -->
<g id="edge4" class="edge"><title>Course&#45;&gt;User</title>
<path fill="none" stroke="#782f8b" d="M351.561,-927.949C356.311,-920.023 361.189,-911.881 366.118,-903.656"/>
<polygon fill="#782f8b" stroke="#782f8b" points="351.385,-928.243 342.385,-934.507 348.815,-932.531 346.245,-936.82 346.245,-936.82 346.245,-936.82 348.815,-932.531 350.105,-939.133 351.385,-928.243 351.385,-928.243"/>
<polygon fill="#782f8b" stroke="#782f8b" points="366.129,-903.637 375.13,-897.373 368.7,-899.348 371.27,-895.06 371.27,-895.06 371.27,-895.06 368.7,-899.348 367.41,-892.746 366.129,-903.637 366.129,-903.637"/>
</g>
<!-- Comment -->
<g id="node6" class="node"><title>Comment</title>
<path fill="none" stroke="black" d="M313.5,-23.5C313.5,-23.5 446.5,-23.5 446.5,-23.5 452.5,-23.5 458.5,-29.5 458.5,-35.5 458.5,-35.5 458.5,-132.5 458.5,-132.5 458.5,-138.5 452.5,-144.5 446.5,-144.5 446.5,-144.5 313.5,-144.5 313.5,-144.5 307.5,-144.5 301.5,-138.5 301.5,-132.5 301.5,-132.5 301.5,-35.5 301.5,-35.5 301.5,-29.5 307.5,-23.5 313.5,-23.5"/>
<text text-anchor="middle" x="380" y="-129.3" font-family="Times,serif" font-size="14.00">Comment</text>
<polyline fill="none" stroke="black" points="301.5,-121.5 458.5,-121.5 "/>
<text text-anchor="start" x="309.5" y="-106.3" font-family="Times,serif" font-size="14.00">id :integer</text>
<text text-anchor="start" x="309.5" y="-91.3" font-family="Times,serif" font-size="14.00">contents :text</text>
<text text-anchor="start" x="309.5" y="-76.3" font-family="Times,serif" font-size="14.00">line :integer</text>
<text text-anchor="start" x="309.5" y="-61.3" font-family="Times,serif" font-size="14.00">upload_datum_id :integer</text>
<text text-anchor="start" x="309.5" y="-46.3" font-family="Times,serif" font-size="14.00">created_at :datetime</text>
<text text-anchor="start" x="309.5" y="-31.3" font-family="Times,serif" font-size="14.00">updated_at :datetime</text>
</g>
<!-- TestCase -->
<g id="node7" class="node"><title>TestCase</title>
<path fill="none" stroke="black" d="M230,-431.5C230,-431.5 346,-431.5 346,-431.5 352,-431.5 358,-437.5 358,-443.5 358,-443.5 358,-540.5 358,-540.5 358,-546.5 352,-552.5 346,-552.5 346,-552.5 230,-552.5 230,-552.5 224,-552.5 218,-546.5 218,-540.5 218,-540.5 218,-443.5 218,-443.5 218,-437.5 224,-431.5 230,-431.5"/>
<text text-anchor="middle" x="288" y="-537.3" font-family="Times,serif" font-size="14.00">TestCase</text>
<polyline fill="none" stroke="black" points="218,-529.5 358,-529.5 "/>
<text text-anchor="start" x="226" y="-514.3" font-family="Times,serif" font-size="14.00">id :integer</text>
<text text-anchor="start" x="226" y="-499.3" font-family="Times,serif" font-size="14.00">assignment_id :integer</text>
<text text-anchor="start" x="226" y="-484.3" font-family="Times,serif" font-size="14.00">created_at :datetime</text>
<text text-anchor="start" x="226" y="-469.3" font-family="Times,serif" font-size="14.00">updated_at :datetime</text>
<text text-anchor="start" x="226" y="-454.3" font-family="Times,serif" font-size="14.00">cpu_time :integer</text>
<text text-anchor="start" x="226" y="-439.3" font-family="Times,serif" font-size="14.00">core_size :integer</text>
</g>
<!-- TestCase&#45;&gt;RunMethod -->
<g id="edge7" class="edge"><title>TestCase&#45;&gt;RunMethod</title>
<path fill="none" stroke="#19e2a4" d="M263.085,-423.896C256.174,-405.283 248.618,-384.931 241.518,-365.809"/>
<ellipse fill="none" stroke="#19e2a4" cx="264.511" cy="-427.736" rx="4.00001" ry="4.00001"/>
<polygon fill="#19e2a4" stroke="#19e2a4" points="241.445,-365.611 242.183,-354.67 239.705,-360.924 237.964,-356.237 237.964,-356.237 237.964,-356.237 239.705,-360.924 233.746,-357.803 241.445,-365.611 241.445,-365.611"/>
</g>
<!-- TestCase&#45;&gt;UploadDatum -->
<g id="edge6" class="edge"><title>TestCase&#45;&gt;UploadDatum</title>
<path fill="none" stroke="#a69806" d="M317.25,-423.858C323.266,-410.048 329.699,-395.283 336.019,-380.774"/>
<ellipse fill="none" stroke="#a69806" cx="315.525" cy="-427.819" rx="4.00002" ry="4.00002"/>
<polygon fill="#a69806" stroke="#a69806" points="336.158,-380.456 344.277,-373.086 338.155,-375.872 340.152,-371.289 340.152,-371.289 340.152,-371.289 338.155,-375.872 336.026,-369.491 336.158,-380.456 336.158,-380.456"/>
</g>
<!-- Assignment&#45;&gt;Submission -->
<g id="edge8" class="edge"><title>Assignment&#45;&gt;Submission</title>
<path fill="none" stroke="#a02dfc" d="M336.278,-658.188C344.798,-642.525 353.873,-626.65 363,-612 368.861,-602.592 375.23,-592.961 381.766,-583.452"/>
<ellipse fill="none" stroke="#a02dfc" cx="334.304" cy="-661.845" rx="4.00002" ry="4.00002"/>
<polygon fill="#a02dfc" stroke="#a02dfc" points="381.838,-583.347 391.24,-577.703 384.691,-579.241 387.544,-575.135 387.544,-575.135 387.544,-575.135 384.691,-579.241 383.849,-572.567 381.838,-583.347 381.838,-583.347"/>
</g>
<!-- Assignment&#45;&gt;TestCase -->
<g id="edge9" class="edge"><title>Assignment&#45;&gt;TestCase</title>
<path fill="none" stroke="#24b060" d="M288,-656.847C288,-624.828 288,-590.011 288,-560.739"/>
<ellipse fill="none" stroke="#24b060" cx="288" cy="-661.201" rx="4" ry="4"/>
<ellipse fill="#24b060" stroke="#24b060" cx="288" cy="-556.637" rx="4" ry="4"/>
</g>
<!-- Role -->
<g id="node9" class="node"><title>Role</title>
<path fill="none" stroke="black" d="M400.5,-959.5C400.5,-959.5 507.5,-959.5 507.5,-959.5 513.5,-959.5 519.5,-965.5 519.5,-971.5 519.5,-971.5 519.5,-1068.5 519.5,-1068.5 519.5,-1074.5 513.5,-1080.5 507.5,-1080.5 507.5,-1080.5 400.5,-1080.5 400.5,-1080.5 394.5,-1080.5 388.5,-1074.5 388.5,-1068.5 388.5,-1068.5 388.5,-971.5 388.5,-971.5 388.5,-965.5 394.5,-959.5 400.5,-959.5"/>
<text text-anchor="middle" x="454" y="-1065.3" font-family="Times,serif" font-size="14.00">Role</text>
<polyline fill="none" stroke="black" points="388.5,-1057.5 519.5,-1057.5 "/>
<text text-anchor="start" x="396.5" y="-1042.3" font-family="Times,serif" font-size="14.00">id :integer</text>
<text text-anchor="start" x="396.5" y="-1027.3" font-family="Times,serif" font-size="14.00">name :string</text>
<text text-anchor="start" x="396.5" y="-1012.3" font-family="Times,serif" font-size="14.00">resource_id :integer</text>
<text text-anchor="start" x="396.5" y="-997.3" font-family="Times,serif" font-size="14.00">resource_type :string</text>
<text text-anchor="start" x="396.5" y="-982.3" font-family="Times,serif" font-size="14.00">created_at :datetime</text>
<text text-anchor="start" x="396.5" y="-967.3" font-family="Times,serif" font-size="14.00">updated_at :datetime</text>
</g>
<!-- Role&#45;&gt;User -->
<g id="edge10" class="edge"><title>Role&#45;&gt;User</title>
<path fill="none" stroke="#29834e" d="M454,-949.21C454,-936.675 454,-923.174 454,-909.348"/>
<polygon fill="#29834e" stroke="#29834e" points="454,-949.22 449.5,-959.22 454,-954.22 454,-959.22 454,-959.22 454,-959.22 454,-954.22 458.5,-959.22 454,-949.22 454,-949.22"/>
<polygon fill="#29834e" stroke="#29834e" points="454,-909.232 458.5,-899.232 454,-904.232 454,-899.232 454,-899.232 454,-899.232 454,-904.232 449.5,-899.232 454,-909.232 454,-909.232"/>
</g>
<!-- UploadDatum&#45;&gt;Comment -->
<g id="edge11" class="edge"><title>UploadDatum&#45;&gt;Comment</title>
<path fill="none" stroke="#be7405" d="M377.786,-196.784C378.064,-182.747 378.348,-168.429 378.615,-154.931"/>
<ellipse fill="none" stroke="#be7405" cx="377.706" cy="-200.84" rx="4" ry="4"/>
<polygon fill="#be7405" stroke="#be7405" points="378.618,-154.785 383.315,-144.876 378.717,-149.786 378.816,-144.787 378.816,-144.787 378.816,-144.787 378.717,-149.786 374.317,-144.698 378.618,-154.785 378.618,-154.785"/>
</g>
<!-- UserSession -->
<g id="node12" class="node"><title>UserSession</title>
<polygon fill="none" stroke="black" points="537.5,-997 537.5,-1043 620.5,-1043 620.5,-997 537.5,-997"/>
<text text-anchor="middle" x="579" y="-1027.8" font-family="Times,serif" font-size="14.00">UserSession</text>
<polyline fill="none" stroke="black" points="537.5,-1020 620.5,-1020 "/>
<text text-anchor="middle" x="579" y="-1004.8" font-family="Times,serif" font-size="14.00"> </text>
</g>
<!-- User&#45;&gt;Submission -->
<g id="edge12" class="edge"><title>User&#45;&gt;Submission</title>
<path fill="none" stroke="#a73261" d="M451.706,-604.761C451.608,-598.296 451.51,-591.895 451.414,-585.624"/>
<ellipse fill="none" stroke="#a73261" cx="451.769" cy="-608.882" rx="4" ry="4"/>
<polygon fill="#a73261" stroke="#a73261" points="451.408,-585.2 455.754,-575.133 451.331,-580.201 451.255,-575.201 451.255,-575.201 451.255,-575.201 451.331,-580.201 446.756,-575.27 451.408,-585.2 451.408,-585.2"/>
</g>
</g>
</svg>
