<?xml version="1.0" encoding="UTF-8" standalone="no"?>
<!DOCTYPE svg PUBLIC "-//W3C//DTD SVG 1.1//EN"
 "http://www.w3.org/Graphics/SVG/1.1/DTD/svg11.dtd">
<!-- Generated by graphviz version 2.36.0 (20140111.2315)
 -->
<!-- Title: models_diagram Pages: 1 -->
<svg width="493pt" height="374pt"
 viewBox="0.00 0.00 493.00 374.00" xmlns="http://www.w3.org/2000/svg" xmlns:xlink="http://www.w3.org/1999/xlink">
<g id="graph0" class="graph" transform="scale(1 1) rotate(0) translate(4 370)">
<title>models_diagram</title>
<polygon fill="white" stroke="none" points="-4,4 -4,-370 489,-370 489,4 -4,4"/>
<!-- _diagram_info -->
<g id="node1" class="node"><title>_diagram_info</title>
<text text-anchor="start" x="7" y="-351.6" font-family="Times,serif" font-size="13.00">Models diagram</text>
<text text-anchor="start" x="7" y="-337.6" font-family="Times,serif" font-size="13.00">Date: Apr 25 2015 &#45; 13:47</text>
<text text-anchor="start" x="7" y="-323.6" font-family="Times,serif" font-size="13.00">Migration version: 20150326044733</text>
<text text-anchor="start" x="7" y="-309.6" font-family="Times,serif" font-size="13.00">Generated by RailRoady 1.2.0</text>
<text text-anchor="start" x="7" y="-295.6" font-family="Times,serif" font-size="13.00">http://railroady.prestonlee.com</text>
</g>
<!-- Submission -->
<g id="node2" class="node"><title>Submission</title>
<ellipse fill="none" stroke="black" cx="357" cy="-162" rx="51.4931" ry="18"/>
<text text-anchor="middle" x="357" y="-158.3" font-family="Times,serif" font-size="14.00">Submission</text>
</g>
<!-- RunSave -->
<g id="node3" class="node"><title>RunSave</title>
<ellipse fill="none" stroke="black" cx="422" cy="-90" rx="42.3701" ry="18"/>
<text text-anchor="middle" x="422" y="-86.3" font-family="Times,serif" font-size="14.00">RunSave</text>
</g>
<!-- Submission&#45;&gt;RunSave -->
<g id="edge2" class="edge"><title>Submission&#45;&gt;RunSave</title>
<path fill="none" stroke="#aad97f" d="M377.76,-138.643C384.891,-130.963 392.893,-122.346 400.111,-114.573"/>
<ellipse fill="none" stroke="#aad97f" cx="374.798" cy="-141.833" rx="4.00002" ry="4.00002"/>
<polygon fill="#aad97f" stroke="#aad97f" points="400.202,-114.475 410.304,-110.209 403.604,-110.811 407.006,-107.147 407.006,-107.147 407.006,-107.147 403.604,-110.811 403.708,-104.085 400.202,-114.475 400.202,-114.475"/>
</g>
<!-- UploadDatum -->
<g id="node11" class="node"><title>UploadDatum</title>
<ellipse fill="none" stroke="black" cx="301" cy="-90" rx="61.1419" ry="18"/>
<text text-anchor="middle" x="301" y="-86.3" font-family="Times,serif" font-size="14.00">UploadDatum</text>
</g>
<!-- Submission&#45;&gt;UploadDatum -->
<g id="edge1" class="edge"><title>Submission&#45;&gt;UploadDatum</title>
<path fill="none" stroke="#92e39b" d="M338.53,-137.912C332.908,-130.885 326.705,-123.131 320.988,-115.985"/>
<ellipse fill="none" stroke="#92e39b" cx="341.23" cy="-141.287" rx="4.00002" ry="4.00002"/>
<polygon fill="#92e39b" stroke="#92e39b" points="320.812,-115.765 318.079,-105.145 317.688,-111.861 314.565,-107.956 314.565,-107.956 314.565,-107.956 317.688,-111.861 311.051,-110.767 320.812,-115.765 320.812,-115.765"/>
</g>
<!-- RunMethod -->
<g id="node4" class="node"><title>RunMethod</title>
<ellipse fill="none" stroke="black" cx="169" cy="-90" rx="52.9443" ry="18"/>
<text text-anchor="middle" x="169" y="-86.3" font-family="Times,serif" font-size="14.00">RunMethod</text>
</g>
<!-- Input -->
<g id="node10" class="node"><title>Input</title>
<ellipse fill="none" stroke="black" cx="169" cy="-18" rx="29.3722" ry="18"/>
<text text-anchor="middle" x="169" y="-14.3" font-family="Times,serif" font-size="14.00">Input</text>
</g>
<!-- RunMethod&#45;&gt;Input -->
<g id="edge3" class="edge"><title>RunMethod&#45;&gt;Input</title>
<path fill="none" stroke="#e6c5e6" d="M169,-63.6398C169,-58.0629 169,-52.1319 169,-46.4761"/>
<ellipse fill="none" stroke="#e6c5e6" cx="169" cy="-67.6966" rx="4" ry="4"/>
<polygon fill="#e6c5e6" stroke="#e6c5e6" points="169,-46.1043 173.5,-36.1043 169,-41.1043 169,-36.1043 169,-36.1043 169,-36.1043 169,-41.1043 164.5,-36.1044 169,-46.1043 169,-46.1043"/>
</g>
<!-- Course -->
<g id="node5" class="node"><title>Course</title>
<ellipse fill="none" stroke="black" cx="267" cy="-327" rx="35.6194" ry="18"/>
<text text-anchor="middle" x="267" y="-323.3" font-family="Times,serif" font-size="14.00">Course</text>
</g>
<!-- Assignment -->
<g id="node8" class="node"><title>Assignment</title>
<ellipse fill="none" stroke="black" cx="258" cy="-234" rx="52.9443" ry="18"/>
<text text-anchor="middle" x="258" y="-230.3" font-family="Times,serif" font-size="14.00">Assignment</text>
</g>
<!-- Course&#45;&gt;Assignment -->
<g id="edge5" class="edge"><title>Course&#45;&gt;Assignment</title>
<path fill="none" stroke="#f3822f" d="M264.501,-300.729C263.313,-288.725 261.893,-274.362 260.683,-262.129"/>
<ellipse fill="none" stroke="#f3822f" cx="264.913" cy="-304.903" rx="4" ry="4"/>
<polygon fill="#f3822f" stroke="#f3822f" points="260.67,-261.991 264.163,-251.597 260.177,-257.015 259.685,-252.04 259.685,-252.04 259.685,-252.04 260.177,-257.015 255.207,-252.483 260.67,-261.991 260.67,-261.991"/>
</g>
<!-- User -->
<g id="node13" class="node"><title>User</title>
<ellipse fill="none" stroke="black" cx="357" cy="-234" rx="26.949" ry="18"/>
<text text-anchor="middle" x="357" y="-230.3" font-family="Times,serif" font-size="14.00">User</text>
</g>
<!-- Course&#45;&gt;User -->
<g id="edge4" class="edge"><title>Course&#45;&gt;User</title>
<path fill="none" stroke="#7c4639" d="M289.466,-303.284C303.488,-289.106 321.445,-270.95 335.317,-256.924"/>
<polygon fill="#7c4639" stroke="#7c4639" points="289.299,-303.453 279.068,-307.399 285.783,-307.008 282.267,-310.563 282.267,-310.563 282.267,-310.563 285.783,-307.008 285.467,-313.727 289.299,-303.453 289.299,-303.453"/>
<polygon fill="#7c4639" stroke="#7c4639" points="335.521,-256.718 345.752,-252.772 339.036,-253.163 342.552,-249.608 342.552,-249.608 342.552,-249.608 339.036,-253.163 339.353,-246.444 335.521,-256.718 335.521,-256.718"/>
</g>
<!-- Comment -->
<g id="node6" class="node"><title>Comment</title>
<ellipse fill="none" stroke="black" cx="301" cy="-18" rx="46.2191" ry="18"/>
<text text-anchor="middle" x="301" y="-14.3" font-family="Times,serif" font-size="14.00">Comment</text>
</g>
<!-- TestCase -->
<g id="node7" class="node"><title>TestCase</title>
<ellipse fill="none" stroke="black" cx="244" cy="-162" rx="42.3456" ry="18"/>
<text text-anchor="middle" x="244" y="-158.3" font-family="Times,serif" font-size="14.00">TestCase</text>
</g>
<!-- TestCase&#45;&gt;RunMethod -->
<g id="edge7" class="edge"><title>TestCase&#45;&gt;RunMethod</title>
<path fill="none" stroke="#11e2cf" d="M220.995,-139.529C212.324,-131.436 202.432,-122.203 193.619,-113.978"/>
<ellipse fill="none" stroke="#11e2cf" cx="224.057" cy="-142.387" rx="4.00002" ry="4.00002"/>
<polygon fill="#11e2cf" stroke="#11e2cf" points="193.522,-113.887 189.281,-103.774 189.866,-110.475 186.211,-107.064 186.211,-107.064 186.211,-107.064 189.866,-110.475 183.14,-110.353 193.522,-113.887 193.522,-113.887"/>
</g>
<!-- TestCase&#45;&gt;UploadDatum -->
<g id="edge6" class="edge"><title>TestCase&#45;&gt;UploadDatum</title>
<path fill="none" stroke="#8609b8" d="M262.364,-138.448C268.355,-131.091 275.033,-122.89 281.129,-115.403"/>
<ellipse fill="none" stroke="#8609b8" cx="259.746" cy="-141.663" rx="4.00002" ry="4.00002"/>
<polygon fill="#8609b8" stroke="#8609b8" points="281.141,-115.388 290.945,-110.475 284.299,-111.511 287.456,-107.633 287.456,-107.633 287.456,-107.633 284.299,-111.511 283.966,-104.792 281.141,-115.388 281.141,-115.388"/>
</g>
<!-- Assignment&#45;&gt;Submission -->
<g id="edge8" class="edge"><title>Assignment&#45;&gt;Submission</title>
<path fill="none" stroke="#7fd4ad" d="M286.793,-212.641C299.313,-203.789 313.988,-193.413 326.675,-184.442"/>
<ellipse fill="none" stroke="#7fd4ad" cx="283.237" cy="-215.155" rx="4.00002" ry="4.00002"/>
<polygon fill="#7fd4ad" stroke="#7fd4ad" points="326.925,-184.265 337.688,-182.166 331.008,-181.379 335.09,-178.492 335.09,-178.492 335.09,-178.492 331.008,-181.379 332.492,-174.818 326.925,-184.265 326.925,-184.265"/>
</g>
<!-- Assignment&#45;&gt;TestCase -->
<g id="edge9" class="edge"><title>Assignment&#45;&gt;TestCase</title>
<path fill="none" stroke="#9a0f32" d="M252.928,-207.64C251.67,-201.348 250.321,-194.605 249.063,-188.316"/>
<ellipse fill="none" stroke="#9a0f32" cx="253.755" cy="-211.774" rx="4.00001" ry="4.00001"/>
<ellipse fill="#9a0f32" stroke="#9a0f32" cx="248.205" cy="-184.027" rx="4.00001" ry="4.00001"/>
</g>
<!-- Role -->
<g id="node9" class="node"><title>Role</title>
<ellipse fill="none" stroke="black" cx="357" cy="-327" rx="26.949" ry="18"/>
<text text-anchor="middle" x="357" y="-323.3" font-family="Times,serif" font-size="14.00">Role</text>
</g>
<!-- Role&#45;&gt;User -->
<g id="edge10" class="edge"><title>Role&#45;&gt;User</title>
<path fill="none" stroke="#971401" d="M357,-298.549C357,-287.083 357,-273.792 357,-262.339"/>
<polygon fill="#971401" stroke="#971401" points="357,-298.884 352.5,-308.884 357,-303.884 357,-308.884 357,-308.884 357,-308.884 357,-303.884 361.5,-308.884 357,-298.884 357,-298.884"/>
<polygon fill="#971401" stroke="#971401" points="357,-262.04 361.5,-252.04 357,-257.04 357,-252.04 357,-252.04 357,-252.04 357,-257.04 352.5,-252.04 357,-262.04 357,-262.04"/>
</g>
<!-- UploadDatum&#45;&gt;Comment -->
<g id="edge11" class="edge"><title>UploadDatum&#45;&gt;Comment</title>
<path fill="none" stroke="#cf00ad" d="M301,-63.6398C301,-58.0629 301,-52.1319 301,-46.4761"/>
<ellipse fill="none" stroke="#cf00ad" cx="301" cy="-67.6966" rx="4" ry="4"/>
<polygon fill="#cf00ad" stroke="#cf00ad" points="301,-46.1043 305.5,-36.1043 301,-41.1043 301,-36.1043 301,-36.1043 301,-36.1043 301,-41.1043 296.5,-36.1044 301,-46.1043 301,-46.1043"/>
</g>
<!-- UserSession -->
<g id="node12" class="node"><title>UserSession</title>
<polygon fill="none" stroke="black" points="485.25,-345 402.75,-345 402.75,-309 485.25,-309 485.25,-345"/>
<text text-anchor="middle" x="444" y="-323.3" font-family="Times,serif" font-size="14.00">UserSession</text>
</g>
<!-- User&#45;&gt;Submission -->
<g id="edge12" class="edge"><title>User&#45;&gt;Submission</title>
<path fill="none" stroke="#c0707d" d="M357,-207.64C357,-202.063 357,-196.132 357,-190.476"/>
<ellipse fill="none" stroke="#c0707d" cx="357" cy="-211.697" rx="4" ry="4"/>
<polygon fill="#c0707d" stroke="#c0707d" points="357,-190.104 361.5,-180.104 357,-185.104 357,-180.104 357,-180.104 357,-180.104 357,-185.104 352.5,-180.104 357,-190.104 357,-190.104"/>
</g>
</g>
</svg>
